PathFileType	4	(X/Y/Z)	/mnt/D494C4CF94C4B4F0/Trampoline_predictions/poses3d/1_partie_0429_002.trc
DataRate	CameraRate	NumFrames	NumMarkers	Units	OrigDataRate	OrigDataStartFrame	OrigNumFrames
120	120	6	17	m	120	1103	1261
Frame#	Time	Nose			L Eye			R Eye			L Ear			R Ear			L Shoulder			R Shoulder			L Elbow			R Elbow			L Wrist			R Wrist			L Hip			R Hip			L Knee			R Knee			L Ankle			R Ankle			
		X1	Y1	Z1	X2	Y2	Z2	X3	Y3	Z3	X4	Y4	Z4	X5	Y5	Z5	X6	Y6	Z6	X7	Y7	Z7	X8	Y8	Z8	X9	Y9	Z9	X10	Y10	Z10	X11	Y11	Z11	X12	Y12	Z12	X13	Y13	Z13	X14	Y14	Z14	X15	Y15	Z15	X16	Y16	Z16	X17	Y17	Z17	
1103	9.191666666666666	1.3312433657445644	0.09237053884424731	4.505606947458461	1.334557338486318	0.10043021658952925	4.54257043782857	1.3509166782664255	0.07391659207546471	4.548411772432832	1.2839659913149322	0.08235810818672705	4.608229573398268	1.3286724224561053	0.01517190165490646	4.631498188926762	1.0867757317764777	0.15136740066126325	4.5485924736638355	1.2349630503781013	-0.10939597885273719	4.590072274435106	0.9073033866770185	0.08569999976366421	4.363428010597206	1.0739540748931877	-0.23992560257063655	4.448722108363327	0.8949320883024893	-0.005659677193205664	4.190569694149159	0.9668959495188604	-0.28000862954603695	4.249173079585465	0.6856800553482825	-0.062368692632680356	4.502819142385677	0.8317077122222346	-0.2719134602689599	4.510183343140229	0.9203631095125975	-0.05385388262934378	4.156265745090743	0.9585941320311815	-0.14872654535326868	4.136733324875006	1.0366395371178334	-0.07208263660000838	3.810038015945584	1.0334615171405515	-0.11866194441946988	3.811707245989575
1104	9.2	1.3165067299216435	0.11394239866398169	4.455991319354225	1.3247640475040687	0.11924652084923842	4.487235316571468	1.3421661348872616	0.09968656275054248	4.492892401821636	1.2823303392152452	0.10431583203089305	4.555884754227254	1.3338470052910902	0.05099327485311373	4.57235939741381	1.083009973826889	0.15576724417500856	4.51076270595116	1.2371096835755442	-0.07287634775446754	4.5682144660632344	0.9048263765678343	0.0741737523288024	4.37069968803117	1.0753955302496248	-0.2504190615364243	4.417725013698399	0.846188020564405	0.005233049042920759	4.20270108418318	0.9485236229202791	-0.24024812260453896	4.2526045514326025	0.7033142912953803	-0.06340511627049075	4.5227808079402605	0.8450611645332474	-0.27556057113974375	4.513654914640922	0.8864506102147719	-0.05677722019680374	4.151437752837893	0.936907605151675	-0.15336421765610664	4.129723563193828	0.9729880040813729	-0.09343026732998866	3.8013411383154136	0.9778504304591545	-0.11402579190533439	3.800237155444395
1105	9.208333333333334	1.3214192711446995	0.09907286270485581	4.3919470562196885	1.3291991957008102	0.11617705746951316	4.4265606451284185	1.3526528245410856	0.08819513276274621	4.4318497687940575	1.2905204816885982	0.12555150651153676	4.509376031562804	1.3464268955726766	0.050407015149271726	4.51699912804355	1.0921314150125503	0.15738126529701144	4.4930658524911085	1.2484608845836123	-0.06986951607460824	4.515178133182787	0.9040200257730586	0.08290634211940598	4.372278213897325	1.0792017952671435	-0.27289366983456675	4.3779246714753	0.8270413598386291	-0.02311297826334796	4.214055409354333	0.9387276334012975	-0.24655140478836066	4.229112254701863	0.722117228171315	-0.07090489407954079	4.535855856022995	0.8607185982689073	-0.27436653064300537	4.51370293278397	0.8472659416434909	-0.06547048750763461	4.152333167657796	0.9108527337785663	-0.17390098784609392	4.119017272449665	0.9134619567043801	-0.08491729870334579	3.7915355132282484	0.918984442404906	-0.12286620418739735	3.794790420558221
1106	9.216666666666667	1.304856346002224	0.09132959526736689	4.340305956866521	1.3174113094580138	0.10952676852462133	4.374020924199118	1.3303900100277721	0.08863951970296874	4.376862617046781	1.2540254339394847	0.1452201884625092	4.454048985404845	1.3361346135065377	0.05730795405849854	4.460634983707489	1.088563585908234	0.15881231868432422	4.4631922835833535	1.2464875273236287	-0.04825463055748956	4.4869933956958095	0.8791737677063307	0.09127760863319197	4.366373655724399	1.0652734909940986	-0.25290218038908624	4.370402081700827	0.7987194359771005	-0.03245512612532707	4.221236685780319	0.9132369602526995	-0.2466155222046471	4.221263796572201	0.7337163326609238	-0.0779368596589317	4.534355288189147	0.872741137709073	-0.2819610443080438	4.5214489679793815	0.8336751728382688	-0.0745047930622921	4.146309521063667	0.8670050612000891	-0.16450642273387786	4.085107719434222	0.8577503165398596	-0.09291612798716563	3.790453525732944	0.8571320488535203	-0.12492683107763344	3.7908686924015993
1107	9.225	1.2894379108418383	0.10331620498296043	4.282152676895217	1.3043600334504852	0.11938103452685328	4.312488660044114	1.3251935845904284	0.0931176134916722	4.315408965555457	1.2655788097161524	0.15405313836762793	4.391520773841331	1.3428416104526824	0.05441171112054861	4.404695499533472	1.1066279861928014	0.18886446221415024	4.440553206360736	1.2509883463271518	-0.04593363313349436	4.447189461522125	0.8741083855607793	0.09331116502118934	4.354613515890461	1.061231338084965	-0.2826089312495759	4.335528403263604	0.7822255766915559	-0.030540910811885095	4.230462168714357	0.9082588953424143	-0.2408212081754076	4.221341776321273	0.7775251016600334	-0.07099218560076923	4.559544965375184	0.8792938610336031	-0.2683410259268814	4.541040459555168	0.8014412536598812	-0.08185538780050945	4.1492798745577355	0.8471375961861259	-0.18994538491908158	4.093477058297192	0.7934395426897549	-0.08109881286734962	3.80916098964811	0.7985970122478486	-0.15004430282845638	3.800135842266954
1108	9.233333333333333	1.2754338661496203	0.09527568824325258	4.2334261432001545	1.2930155398842273	0.1204714598506723	4.262336622891677	1.305327362772673	0.09029699127969873	4.259313547766911	1.2740046628540467	0.1542704075120829	4.355622518489164	1.327378181166382	0.05804239293297011	4.342486779038372	1.1036980711380868	0.18107111305167417	4.406254187722047	1.2567151993324719	-0.07604213549135236	4.381315301316673	0.8830144989657664	0.09948991730354619	4.362068687257298	1.0634870292331162	-0.28989319187112345	4.316120459760095	0.7543183227903141	-0.04316213299263805	4.2311588338294905	0.8886895591247382	-0.24983897706646235	4.214019221523989	0.7970515532602741	-0.08074612373372729	4.568643082636676	0.8968187567915817	-0.2618056217340457	4.544217512777375	0.7744217750773874	-0.08984976749378595	4.155065209443494	0.8324179547251213	-0.19165075373177823	4.1074212472225025	0.7247522353636378	-0.10639278609675265	3.8103251030637444	0.7363476084394609	-0.1399608799622859	3.8054607716104134
